# xmcd
#
# Track frame offsets:
#	150
#	12029
#	37882
#	47501
#	86514
#	106749
#	127994
#	140329
#	160578
#
# Disc length: 2356 seconds
# Revision: 1
# Processed by: cddbd v1.5.2PL0 Copyright (c) Steve Scherf et al.
# Submitted via: dBpowerAMP V12.0
#
DISCID=5a093209
DTITLE=After Blues - After Blues
DYEAR=1986
DGENRE=Blues/Rock
TTITLE0=Hey Wooman
TTITLE1=Popatrz Mamo (Look At Me Mum)
TTITLE2=Sliska Dzisiaj Droga (The Way Is Slippery Today)
TTITLE3=Blues Dla Ryska (Blues For Richard)
TTITLE4=Coraz Zimniejsze Dni (Days Become Colder)
TTITLE5=Bluesada
TTITLE6=Kiedy Opuszczam Miasto (When I'm Leaving Town)
TTITLE7=Nie Zaluj Mnie (Don't Pity On Me)
TTITLE8=Slusarz (Locksmith)
EXTD=
EXTT0=
EXTT1=
EXTT2=
EXTT3=
EXTT4=
EXTT5=
EXTT6=
EXTT7=
EXTT8=
PLAYORDER=
